<svg id="Layer_6" data-name="Layer 6" xmlns="http://www.w3.org/2000/svg" viewBox="0 0 144 144"><title>logo-finals</title><path d="M33.81,59.1a26.54,26.54,0,0,0,3.9,7.48C48.22,80,63.08,86.54,75,98.75a34.24,34.24,0,0,1,2.43,2.8c1,1.48,2.07,3,1.66,5.06a4.3,4.3,0,0,1-1.18,2.24c-2.19,2.13-5,1.35-7.2-.42a20.88,20.88,0,0,1-4.54-5.4c-2.06-3.37-3.87-7.71-7.72-8.63-3.18-.76-6.35,1.64-8,4.46-3,5.16-2.65,11.92.21,17.18s7.93,9.09,13.49,11.32a25.31,25.31,0,0,0,11.94,1.9c9.29-.1,18-6.46,21.74-15a24.34,24.34,0,0,0-.92-21.48,30.41,30.41,0,0,0-7.13-7.72A101.19,101.19,0,0,0,74.49,74.78c-4.07-2.27-8.16-4.5-12-7.08-5.21-3.45-10.61-6.86-14.29-11.91A24.29,24.29,0,0,1,43.51,38c.25-1.8.35-2.11.55-3.15s.33-1.46-.63-2-1.81-.16-2.74.78C33.71,40,30.73,50.53,33.81,59.1Z"/><path d="M112.59,85.55a26.41,26.41,0,0,0-3.9-7.48c-10.51-13.37-25.37-20-37.3-32.17A36,36,0,0,1,69,43.1c-1-1.49-2.07-3-1.66-5.06a4.3,4.3,0,0,1,1.18-2.25c2.19-2.12,5-1.34,7.2.43a20.88,20.88,0,0,1,4.54,5.4c2.06,3.37,3.87,7.71,7.72,8.63,3.18.75,6.34-1.64,8-4.46,3-5.16,2.65-11.92-.21-17.18s-7.93-9.09-13.49-11.32a25.31,25.31,0,0,0-11.94-1.91c-9.29.11-18.05,6.47-21.75,15a24.36,24.36,0,0,0,.93,21.47,30.11,30.11,0,0,0,7.13,7.73A101.13,101.13,0,0,0,71.91,69.86C76,72.13,80.07,74.37,84,77c5.21,3.45,10.61,6.85,14.29,11.91a24.26,24.26,0,0,1,4.64,17.78c-.25,1.81-.34,2.12-.55,3.15s-.32,1.47.64,2,1.81.16,2.74-.78C112.69,104.7,115.67,94.11,112.59,85.55Z"/></svg>